<svg width="120" height="29" viewBox="0 0 120 29" fill="none" xmlns="http://www.w3.org/2000/svg">
<g clip-path="url(#clip0)">
<g filter="url(#filter0_d)">
<path d="M26.1794 5.86347C25.8318 5.40042 25.1579 5.37872 24.7485 5.78815L20.2053 10.3313C19.8593 10.6773 19.823 11.2195 20.0511 11.6525C21.0004 13.4544 21.0004 15.615 20.0511 17.4168C19.823 17.8498 19.8593 18.392 20.2053 18.738L24.7485 23.2812C25.1579 23.6906 25.8318 23.6689 26.1794 23.2058C30.0314 18.0752 30.0314 10.994 26.1794 5.86347Z" fill="#37B06F"/>
<path d="M5.86249 2.88896C5.39944 3.23661 5.37774 3.91046 5.78718 4.31989L10.3303 8.86305C10.6764 9.20908 11.2186 9.24539 11.6515 9.01729C13.4534 8.068 15.614 8.068 17.4158 9.01729C17.8488 9.24539 18.391 9.20908 18.737 8.86305L23.2802 4.3199C23.6896 3.91046 23.6679 3.23661 23.2049 2.88896C18.0742 -0.962985 10.9931 -0.962985 5.86249 2.88896Z" fill="#37B06F"/>
<path d="M18.737 20.2058C18.391 19.8598 17.8488 19.8235 17.4158 20.0516C15.614 21.0009 13.4534 21.0009 11.6515 20.0516C11.2186 19.8235 10.6764 19.8598 10.3303 20.2058L5.78717 24.749C5.37774 25.1584 5.39944 25.8323 5.86249 26.1799C10.9931 30.0319 18.0742 30.0319 23.2049 26.1799C23.6679 25.8323 23.6896 25.1584 23.2802 24.749L18.737 20.2058Z" fill="#37B06F"/>
<path d="M9.01729 11.6525C9.24539 11.2195 9.20909 10.6773 8.86305 10.3313L4.31989 5.78815C3.91046 5.37871 3.23661 5.40041 2.88896 5.86347C-0.962986 10.994 -0.962986 18.0752 2.88896 23.2058C3.23661 23.6689 3.91046 23.6906 4.3199 23.2812L8.86305 18.738C9.20909 18.392 9.24539 17.8498 9.01729 17.4168C8.06801 15.615 8.06801 13.4544 9.01729 11.6525Z" fill="#37B06F"/>
</g>
<path d="M38.1533 20.6807H42.564C46.6278 20.6807 49.3369 18.3349 49.3369 14.7998C49.3369 11.2647 46.6278 8.91891 42.564 8.91891H38.1533V20.6807ZM40.8295 18.5332V11.0664H42.564C44.9758 11.0664 46.6112 12.5201 46.6112 14.7998C46.6112 17.096 44.9758 18.5332 42.564 18.5332H40.8295Z" fill="white"/>
<path d="M54.7075 20.945C56.7559 20.945 58.3914 20.0199 58.92 18.5001L56.8385 17.9715C56.4751 18.6653 55.7483 19.1279 54.8067 19.1279C53.6007 19.1279 52.7583 18.3515 52.56 17.1621H59.2008C59.2338 16.9804 59.2338 16.6335 59.2338 16.4187C59.2338 13.7591 57.3837 11.9585 54.691 11.9585C51.9653 11.9585 50.0326 13.7426 50.0326 16.3857C50.0326 19.1114 51.9653 20.945 54.7075 20.945ZM52.5435 15.6423C52.7417 14.519 53.5181 13.7756 54.6249 13.7756C55.7648 13.7756 56.5907 14.5685 56.7394 15.6423H52.5435Z" fill="white"/>
<path d="M60.4893 20.6807H63.248V16.0057H68.2039V13.8582H63.248V11.2647H68.9142V8.91891H60.4893V20.6807Z" fill="white"/>
<path d="M71.1175 11.0499C71.9765 11.0499 72.5877 10.4552 72.5877 9.61272C72.5877 8.78675 71.9765 8.17554 71.1175 8.17554C70.2585 8.17554 69.6472 8.78675 69.6472 9.61272C69.6472 10.4552 70.2585 11.0499 71.1175 11.0499ZM69.895 20.6807H72.3399V12.2228H69.895V20.6807Z" fill="white"/>
<path d="M82.3752 21.0937C85.233 21.0937 86.9015 19.7226 86.9015 17.542C86.9015 14.8989 84.5062 14.4364 82.3917 14.0895C80.6737 13.8252 79.1208 13.5443 79.1208 12.008C79.1208 10.7526 80.145 9.94311 82.0282 9.94311C84.0271 9.94311 85.1835 10.9178 85.1835 12.5697H86.6372C86.6206 10.1083 84.8861 8.62156 82.0282 8.62156C79.22 8.62156 77.6176 9.99267 77.6176 12.0906C77.6176 14.6181 79.9303 15.1632 82.0282 15.4936C83.7793 15.7744 85.3982 16.0388 85.3982 17.6411C85.3982 18.9462 84.2914 19.7721 82.3917 19.7721C80.2111 19.7721 78.9391 18.6984 78.9226 16.8978H77.4359C77.4359 19.4913 79.3191 21.0937 82.3752 21.0937Z" fill="white"/>
<path d="M90.9408 20.945C92.2789 20.945 93.2535 20.4164 93.8482 19.4583H93.9969V20.6807H95.368V15.1467C95.368 13.247 93.9969 12.0245 91.8329 12.0245C89.7349 12.0245 88.3638 13.1479 88.3638 14.9154H89.7514C89.7349 13.8747 90.5609 13.2635 91.8164 13.2635C93.1875 13.2635 93.9969 13.9904 93.9969 15.1137V15.4441L91.6842 15.7249C89.2063 16.0057 87.9508 17.096 87.9508 18.5662C87.9508 20.0034 89.1402 20.945 90.9408 20.945ZM91.1391 19.8052C90.0158 19.8052 89.3219 19.3261 89.3219 18.5332C89.3219 17.7568 89.9827 17.096 91.6842 16.8812L93.9969 16.6169V17.3603C93.9969 18.7645 92.8406 19.8052 91.1391 19.8052Z" fill="white"/>
<path d="M99.3287 20.6807H101.278L104.45 12.3384H103.046L100.369 19.5904H100.221L97.5611 12.3384H96.157L99.3287 20.6807Z" fill="white"/>
<path d="M109.333 21.0111C111.183 21.0111 112.686 20.1521 113.364 18.7314L112.224 18.1532C111.695 19.1444 110.605 19.7721 109.366 19.7721C107.664 19.7721 106.442 18.6488 106.244 16.9638H113.628C113.644 16.7821 113.644 16.5839 113.644 16.4187C113.644 13.8582 111.811 12.008 109.267 12.008C106.69 12.008 104.84 13.8582 104.84 16.4022C104.84 19.0783 106.723 21.0111 109.333 21.0111ZM106.26 15.7579C106.492 14.2547 107.664 13.247 109.201 13.247C110.787 13.247 111.959 14.2547 112.207 15.7579H106.26Z" fill="white"/>
<path d="M115.259 20.6807H116.631V16.1874C116.631 14.5355 117.506 13.4122 118.762 13.4122C119.075 13.4122 119.571 13.4783 120 13.66V12.388C119.753 12.2558 119.356 12.1732 118.976 12.1732C118.051 12.1732 117.126 12.7018 116.746 13.4617H116.597V12.3384H115.259V20.6807Z" fill="white"/>
</g>
<defs>
<filter id="filter0_d" x="-140.423" y="-140.423" width="309.915" height="309.916" filterUnits="userSpaceOnUse" color-interpolation-filters="sRGB">
<feFlood flood-opacity="0" result="BackgroundImageFix"/>
<feColorMatrix in="SourceAlpha" type="matrix" values="0 0 0 0 0 0 0 0 0 0 0 0 0 0 0 0 0 0 127 0"/>
<feOffset/>
<feGaussianBlur stdDeviation="70.2117"/>
<feColorMatrix type="matrix" values="0 0 0 0 0 0 0 0 0 0 0 0 0 0 0 0 0 0 0.15 0"/>
<feBlend mode="normal" in2="BackgroundImageFix" result="effect1_dropShadow"/>
<feBlend mode="normal" in="SourceGraphic" in2="effect1_dropShadow" result="shape"/>
</filter>
<clipPath id="clip0">
<rect width="120" height="29" fill="white"/>
</clipPath>
</defs>
</svg>
