<svg width="27" height="27" viewBox="0 0 27 27" fill="none" xmlns="http://www.w3.org/2000/svg">
<circle cx="13.5" cy="13.5" r="13.5" fill="#52A36F"/>
<path d="M19.1323 9.01761C17.7837 7.93316 15.6502 7.7497 15.5595 7.74191C15.4171 7.72987 15.2818 7.81061 15.2238 7.94095C15.2195 7.94945 15.1728 8.05641 15.121 8.22287C16.0128 8.37303 17.1086 8.6762 18.1003 9.29174C18.259 9.3902 18.3078 9.59916 18.2094 9.75853C18.1456 9.86195 18.0344 9.91861 17.9211 9.91861C17.8602 9.91861 17.7985 9.90232 17.7426 9.86761C16.0383 8.81078 13.9091 8.75766 13.4997 8.75766C13.0903 8.75766 10.9603 8.81078 9.25747 9.86761C9.09809 9.96678 8.88984 9.9172 8.79067 9.75853C8.69151 9.59916 8.74109 9.39091 8.89976 9.29174C9.89142 8.67691 10.9865 8.37303 11.879 8.22287C11.8266 8.0557 11.7798 7.94945 11.7763 7.94095C11.7175 7.81061 11.5829 7.72845 11.4398 7.74262C11.3499 7.7497 9.21638 7.93316 7.8493 9.0332C7.1353 9.69266 5.70801 13.5517 5.70801 16.8879C5.70801 16.9467 5.72359 17.0048 5.75263 17.0558C6.73792 18.7862 9.42534 19.2396 10.038 19.2594C10.0416 19.2594 10.0451 19.2594 10.0487 19.2594C10.157 19.2594 10.259 19.2077 10.3228 19.1199L10.9426 18.2684C9.27163 17.8364 8.41809 17.1032 8.36851 17.06C8.22826 16.9361 8.2148 16.7222 8.33876 16.5819C8.46272 16.4417 8.67592 16.4282 8.81617 16.5514C8.83672 16.5699 10.4085 17.9037 13.4997 17.9037C16.5965 17.9037 18.1683 16.5642 18.1839 16.5507C18.3241 16.4289 18.538 16.4417 18.6613 16.5826C18.7845 16.7229 18.7711 16.9361 18.6315 17.0593C18.582 17.1032 17.7284 17.8357 16.0575 18.2677L16.6773 19.1192C16.741 19.207 16.843 19.2587 16.9514 19.2587C16.9549 19.2587 16.9585 19.2587 16.962 19.2587C17.5747 19.2396 20.2621 18.7862 21.2474 17.0551C21.2758 17.0041 21.2913 16.9467 21.2913 16.8879C21.2913 13.5517 19.864 9.69266 19.1323 9.01761ZM11.2975 15.5329C10.643 15.5329 10.1117 14.9258 10.1117 14.1778C10.1117 13.4298 10.6423 12.8228 11.2975 12.8228C11.9527 12.8228 12.4832 13.4298 12.4832 14.1778C12.4832 14.9258 11.9527 15.5329 11.2975 15.5329ZM15.7019 15.5329C15.0474 15.5329 14.5161 14.9258 14.5161 14.1778C14.5161 13.4298 15.0467 12.8228 15.7019 12.8228C16.3564 12.8228 16.8876 13.4298 16.8876 14.1778C16.8876 14.9258 16.3564 15.5329 15.7019 15.5329Z" fill="white"/>
</svg>
