<svg width="27" height="27" viewBox="0 0 27 27" fill="none" xmlns="http://www.w3.org/2000/svg">
<circle cx="13.5" cy="13.5" r="13.5" fill="#52A36F"/>
<path d="M18.9372 11.0157C19.0778 10.5937 19.1483 10.1563 19.1483 9.70316C19.1483 9.09898 19.0153 8.53124 18.7497 8C18.1926 8 17.7004 8.10166 17.2732 8.30472C16.8462 8.50784 16.3592 8.82293 15.8125 9.25C15.1251 9.08335 14.3957 9.00003 13.6251 9.00003C12.7812 9.00003 11.9765 9.09123 11.211 9.2735C10.6537 8.83596 10.1615 8.51444 9.73444 8.30866C9.30735 8.10289 8.81259 8.00003 8.25005 8.00003C7.98443 8.53126 7.85164 9.09903 7.85164 9.70319C7.85164 10.1616 7.92191 10.6043 8.06256 11.0313C7.35414 11.8595 7 12.8907 7 14.1251C7 15.2085 7.16139 16.0704 7.48436 16.7111C7.65629 17.0495 7.88018 17.349 8.15625 17.6095C8.43221 17.8699 8.74733 18.0809 9.10152 18.2424C9.45577 18.4038 9.81246 18.538 10.1719 18.6447C10.5313 18.7514 10.9284 18.8296 11.3633 18.8789C11.7982 18.9285 12.1823 18.9611 12.5156 18.9768C12.8489 18.9922 13.2186 19.0001 13.625 19.0001C14.1041 19.0001 14.5389 18.9883 14.9297 18.965C15.3203 18.9416 15.7668 18.8842 16.2695 18.7933C16.7721 18.7021 17.2148 18.5783 17.5977 18.4221C17.9805 18.2659 18.3478 18.0419 18.6994 17.7503C19.0509 17.4585 19.3255 17.1122 19.5236 16.7111C19.8411 16.0653 20 15.2032 20 14.1251C19.9998 12.8855 19.6457 11.849 18.9372 11.0157ZM18 16.6992C17.8333 17.0405 17.6224 17.3085 17.3672 17.504C17.1119 17.6993 16.7942 17.8555 16.4141 17.9728C16.0337 18.09 15.6693 18.1668 15.3203 18.2031C14.9712 18.2396 14.5834 18.2578 14.1562 18.2578H12.8436C12.4166 18.2578 12.0285 18.2396 11.6796 18.2031C11.3306 18.1668 10.9661 18.09 10.5858 17.9728C10.2057 17.8555 9.88803 17.6993 9.63276 17.504C9.37748 17.3084 9.16657 17.0405 8.99989 16.6992C8.83325 16.358 8.7499 15.9583 8.7499 15.5C8.7499 14.8749 8.9296 14.3435 9.28902 13.9062C9.64841 13.4687 10.1353 13.25 10.7499 13.25C10.9739 13.25 11.4817 13.3046 12.2734 13.414C12.6432 13.4713 13.0521 13.5 13.4999 13.5C13.9479 13.5 14.3568 13.4714 14.7265 13.414C15.5287 13.3046 16.0363 13.25 16.25 13.25C16.8645 13.25 17.3515 13.4688 17.7108 13.9062C18.0703 14.3437 18.2499 14.8749 18.2499 15.5C18.2499 15.9584 18.1665 16.3583 18 16.6992Z" fill="white"/>
<path d="M11.5665 14.2658C11.4076 14.0886 11.2189 14 11.0001 14C10.7812 14 10.5924 14.0887 10.4336 14.2658C10.2748 14.4427 10.1628 14.6407 10.0977 14.8592C10.0325 15.0782 10 15.2917 10 15.5002C10 15.7084 10.0326 15.9219 10.0977 16.1408C10.1627 16.3595 10.2747 16.5574 10.4336 16.7343C10.5925 16.9115 10.7812 17.0001 11.0001 17.0001C11.2189 17.0001 11.4077 16.9113 11.5665 16.7343C11.7253 16.5573 11.8373 16.3595 11.9023 16.1408C11.9675 15.9219 12.0001 15.7084 12.0001 15.5002C12.0001 15.2919 11.9676 15.0782 11.9023 14.8592C11.8372 14.6408 11.7254 14.4429 11.5665 14.2658Z" fill="white"/>
<path d="M16.5664 14.2658C16.4076 14.0886 16.2188 14 16.0001 14C15.7814 14 15.5925 14.0887 15.4336 14.2658C15.2748 14.4427 15.1628 14.6407 15.0979 14.8592C15.0326 15.0782 15 15.2917 15 15.5002C15 15.7084 15.0326 15.9219 15.0979 16.1408C15.1628 16.3595 15.2748 16.5574 15.4336 16.7343C15.5926 16.9115 15.7814 17.0001 16.0001 17.0001C16.2188 17.0001 16.4076 16.9113 16.5664 16.7343C16.7252 16.5573 16.8372 16.3595 16.9024 16.1408C16.9675 15.9219 17.0001 15.7084 17.0001 15.5002C17.0001 15.2919 16.9675 15.0782 16.9024 14.8592C16.8372 14.6408 16.7252 14.4429 16.5664 14.2658Z" fill="white"/>
</svg>
