<svg width="119" height="87" viewBox="0 0 119 87" fill="none" xmlns="http://www.w3.org/2000/svg">
<path opacity="0.3" d="M118.281 0C114.985 13.6523 111.69 28.4816 108.395 44.4877C105.099 60.2585 102.51 74.2639 100.627 86.5039H67.0846L64.6131 82.62C67.9085 70.1446 72.3808 56.4923 78.03 41.6631C83.6792 26.5985 89.4462 12.7108 95.3308 0H118.281ZM52.9615 0C49.6662 13.6523 46.3708 28.4816 43.0754 44.4877C39.78 60.2585 37.1908 74.2639 35.3077 86.5039H2.11846L0 82.62C3.29538 70.1446 7.65 56.4923 13.0638 41.6631C18.7131 26.5985 24.48 12.7108 30.3646 0H52.9615Z" fill="#37B06F"/>
</svg>
