<svg width="62" height="45" viewBox="0 0 62 45" fill="none" xmlns="http://www.w3.org/2000/svg">
<path opacity="0.3" d="M62 0C60.2726 7.10204 58.5453 14.8163 56.8179 23.1429C55.0905 31.3469 53.7333 38.6327 52.7463 45H35.1642L33.8687 42.9796C35.596 36.4898 37.9403 29.3878 40.9015 21.6735C43.8627 13.8367 46.8856 6.61225 49.9701 0H62ZM27.7612 0C26.0338 7.10204 24.3065 14.8163 22.5791 23.1429C20.8517 31.3469 19.4945 38.6327 18.5075 45H1.11045L0 42.9796C1.72736 36.4898 4.00995 29.3878 6.84776 21.6735C9.80896 13.8367 12.8318 6.61225 15.9164 0H27.7612Z" fill="#37B06F"/>
</svg>
