<svg width="27" height="27" viewBox="0 0 27 27" fill="none" xmlns="http://www.w3.org/2000/svg">
<circle cx="13.5" cy="13.5" r="13.5" fill="#52A36F"/>
<path d="M19.0275 18.2708L20.0117 19.3301V19.3632H15.0174V19.3301L16.0162 18.2708C16.1191 18.1715 16.1778 18.0225 16.1484 17.857V11.0708C16.1484 10.7894 16.1484 10.3922 16.1925 10.0611L12.8434 19.4956H12.7993L9.31793 10.8225C9.24449 10.6073 9.21511 10.5908 9.17104 10.4418V16.1356C9.12697 16.5163 9.18573 16.897 9.33262 17.2446L10.7281 19.3301V19.3632H7.01172V19.3301L8.4072 17.2446C8.55409 16.897 8.61285 16.5163 8.56878 16.1356V9.84595C8.59816 9.53147 8.51002 9.23354 8.33375 8.98526L7.34957 7.52871V7.49561H10.9044L13.8863 14.8446L16.5157 7.49561H19.997V7.52871L19.0128 8.75354C18.8953 8.85285 18.8366 9.01836 18.866 9.18388V17.857C18.8513 18.0059 18.91 18.1715 19.0275 18.2708Z" fill="white"/>
</svg>
